<svg xmlns="http://www.w3.org/2000/svg" viewBox="0 0 48 48"><path fill="#333" d="m24 43-6.5-3.2C12.3 37.2 9 32 9 26V7h30v19c0 6-3.3 11.2-8.5 13.8zM11 9v17c0 5.1 2.9 9.7 7.5 12l5.5 2.8 5.5-2.8c4.6-2.3 7.5-6.9 7.5-12V9z"/><path fill="#333" d="m25 20-2 1v10h-4v2h10v-2h-4z"/><path fill="#333" d="M31.1 17h-4.9c.5-.5.8-1.3.8-2 0-1.7-1.3-3-3-3s-3 1.3-3 3c0 .7.3 1.5.8 2h-4.9L14 22.8v.2c0 2.2 1.8 4 4 4s4-1.8 4-4v-.2L20.1 19h7.8L26 22.8v.2c0 2.2 1.8 4 4 4s4-1.8 4-4v-.2zM18 25c-1 0-1.9-.8-2-1.8l2-4 2 4c-.1 1-1 1.8-2 1.8m6-9c-.6 0-1-.4-1-1s.4-1 1-1 1 .4 1 1-.4 1-1 1m6 9c-1 0-1.9-.8-2-1.8l2-4 2 4c-.1 1-1 1.8-2 1.8"/></svg>