<svg xmlns="http://www.w3.org/2000/svg" data-name="Ebene 1" viewBox="0 0 1080 540"><path fill="#3df5dc" d="M27.09 330.06h916.3v79.31H27.09z"/><path fill="#333" d="m49.39 196.6 10.25-12.81c5.91 6.44 15.63 11.36 25.68 11.36s14.98-4.6 14.98-10.84c0-5.06-3.22-7.62-11.3-9.79l-11.23-3.02c-15.31-4.14-23.12-11.56-23.12-24.83 0-15.37 12.81-25.75 30.02-25.75 11.76 0 22.4 4.34 31.47 12.28l-9.52 12.48c-5.91-5.58-13.4-9.66-21.94-9.66-7.23 0-12.15 3.81-12.15 9.52s3.68 8.01 10.51 9.66l11.69 2.82c16.29 3.94 24.3 11.43 24.3 25.22 0 16.82-13.14 27-33.04 27-14.19 0-27.72-5.12-36.59-13.66Zm78.22-20.16c0-19.71 14.25-33.83 34.42-33.83 15.31 0 27.2 8.15 31.79 20.63l-16.23 6.7c-2.3-7.69-8.01-12.22-15.57-12.22-9.52 0-16.03 7.16-16.03 18.72s6.5 18.72 16.03 18.72c7.88 0 13.6-4.53 15.9-12.22l16.23 6.7c-4.6 12.48-16.49 20.63-32.12 20.63-20.17 0-34.42-14.12-34.42-33.83m77.96-57.48 17.74-1.97v37.05h.26c3.15-7.69 10.44-11.43 18.72-11.43 15.17 0 23.32 9.59 23.32 25.42v40.92h-17.74v-37.51c0-9.26-3.61-14.06-11.36-14.06s-13.2 5.25-13.2 15.17v36.39h-17.74v-89.99Zm75.28 24.96h15.77l1.31 10.77h.26c3.81-8.34 11.1-12.09 19.38-12.09 15.17 0 23.32 9.59 23.32 25.42v40.92h-17.74v-37.51c0-9.26-3.61-14.06-11.36-14.06s-13.2 5.25-13.2 15.17v36.39h-17.74V143.9Zm71.78 32.45c0-18.98 14.19-33.76 33.44-33.76s33.17 14.78 33.17 33.83c0 2.1-.07 3.15-.2 4.86h-48.61c1.51 9.46 7.88 14.52 18.13 14.52 6.77 0 12.68-2.89 16.95-8.8l12.09 10.05c-7.23 8.41-17.41 13.2-29.69 13.2-22.33 0-35.27-14.19-35.27-33.9Zm48.42-6.89c-1.45-7.09-7.03-12.09-14.98-12.09s-13.07 4.47-15.11 12.09zm30.47-50.52 17.74-1.97v91.96h-17.74zm33.62 0 17.74-1.97v91.96h-17.74zm30.15 57.41c0-18.98 14.19-33.76 33.44-33.76s33.17 14.78 33.17 33.83c0 2.1-.07 3.15-.2 4.86h-48.61c1.51 9.46 7.88 14.52 18.13 14.52 6.77 0 12.68-2.89 16.95-8.8l12.09 10.05c-7.23 8.41-17.41 13.2-29.69 13.2-22.33 0-35.27-14.19-35.27-33.9Zm48.42-6.89c-1.45-7.09-7.03-12.09-14.98-12.09s-13.07 4.47-15.11 12.09zm30.46-25.56h15.77l1.31 11.96h.26c2.76-7.88 7.36-12.61 17.28-12.61 1.64 0 3.22.13 4.73.39v16.36c-1.84-.39-4.27-.59-6.5-.59-9.2 0-15.11 4.01-15.11 15.77v33.76h-17.74v-65.03Zm72.39-16.55c0-5.85 4.6-10.38 10.38-10.38s10.38 4.53 10.38 10.38-4.53 10.38-10.38 10.38-10.38-4.53-10.38-10.38m1.51 16.55h17.74v65.03h-17.74zm33.62 0h15.77l1.31 10.77h.26c3.81-8.34 11.1-12.09 19.38-12.09 15.17 0 23.32 9.59 23.32 25.42v40.92h-17.74v-37.51c0-9.26-3.61-14.06-11.36-14.06s-13.2 5.25-13.2 15.17v36.39h-17.74V143.9Zm99.12 32.52c0-19.12 11.43-33.83 29.69-33.83 9.66 0 17.15 4.2 20.5 11.23h.26v-34.88l17.74-1.97v91.96h-15.77l-1.31-10.77h-.26c-3.42 7.55-11.1 12.09-21.15 12.09-18.26 0-29.69-14.71-29.69-33.83Zm50.45 0c0-11.89-6.5-19.05-16.03-19.05s-16.03 7.16-16.03 19.05 6.5 19.05 16.03 19.05 16.03-7.16 16.03-19.05m30.14-.07c0-18.98 14.19-33.76 33.44-33.76s33.17 14.78 33.17 33.83c0 2.1-.07 3.15-.2 4.86H879.2c1.51 9.46 7.88 14.52 18.13 14.52 6.77 0 12.68-2.89 16.95-8.8l12.09 10.05c-7.23 8.41-17.41 13.2-29.69 13.2-22.33 0-35.27-14.19-35.27-33.9Zm48.41-6.89c-1.45-7.09-7.03-12.09-14.98-12.09s-13.07 4.47-15.11 12.09zm28.96-42.11c0-5.85 4.6-10.38 10.38-10.38s10.38 4.53 10.38 10.38-4.53 10.38-10.38 10.38-10.38-4.53-10.38-10.38m1.51 16.55h17.74v65.03h-17.74zm33.63 0h15.77l1.31 10.77h.26c3.81-8.34 11.1-12.09 19.38-12.09 15.17 0 23.32 9.59 23.32 25.42v40.92h-17.74v-37.51c0-9.26-3.61-14.06-11.36-14.06s-13.2 5.25-13.2 15.17v36.39h-17.74V143.9ZM74.35 294.99H48.73v-15.11h69.63v15.11H92.74v71.6H74.35zm44.66 6.57h15.77l1.31 11.96h.26c2.76-7.88 7.36-12.61 17.28-12.61 1.64 0 3.22.13 4.73.39v16.36c-1.84-.39-4.27-.59-6.5-.59-9.2 0-15.11 4.01-15.11 15.77v33.76h-17.74v-65.03Zm44.01 47.43c0-10.77 6.77-16.49 21.81-19.12l20.1-3.55v-3.81c0-4.99-2.96-8.47-10.84-8.47-7.23 0-11.5 2.56-12.74 9.2l-17.01-2.63c3.09-13.07 13.4-20.36 30.41-20.36 18.13 0 27.85 7.95 27.79 23.06l-.13 27.59c0 2.96 1.97 3.81 4.4 3.81 1.05 0 2.3-.07 3.55-.33v12.35c-3.48.85-6.5 1.18-9.72 1.18-10.71 0-13.73-5.85-13.73-11.76v-.33h-.26c-3.09 7.69-10.9 12.09-21.35 12.09-14.19 0-22.27-7.42-22.27-18.92Zm41.91-5.98v-5.85l-16.16 3.48c-4.86 1.05-7.09 3.22-7.09 6.96 0 5.06 3.94 7.42 9.85 7.42 8.21 0 13.4-4.53 13.4-12.02Zm34.8.13v-41.58h17.74v37.51c0 9.26 3.42 14.06 11.17 14.06s13.01-5.25 13.01-15.17v-36.39h17.74v65.03h-15.77l-1.31-10.77h-.26c-3.81 8.34-10.9 12.09-19.18 12.09-15.17 0-23.12-9.59-23.12-24.77Zm75.53-41.58h15.77l1.31 10.77h.26c3.81-8.34 11.43-12.09 19.05-12.09 10.05 0 16.62 4.66 19.64 12.74h.26c3.81-9 12.15-12.74 19.77-12.74 14.52 0 22.33 8.93 22.33 24.77v41.58h-17.74v-37.51c0-9.26-3.28-14.06-10.38-14.06s-12.22 5.25-12.22 15.17v36.39h-17.74v-37.51c0-9.26-3.28-14.06-10.38-14.06s-12.22 5.25-12.22 15.17v36.39h-17.74v-65.03Zm110.15 54.32 31.14-40.27v-.26h-29.82v-13.79h52.95v10.84l-30.61 39.81v.26H481v14.12h-55.57v-10.71Zm67.39-12.74v-41.58h17.74v37.51c0 9.26 3.42 14.06 11.17 14.06s13.01-5.25 13.01-15.17v-36.39h17.74v65.03h-15.77l-1.31-10.77h-.26c-3.81 8.34-10.9 12.09-19.18 12.09-15.17 0-23.12-9.59-23.12-24.77Zm75.53-66.54 17.74-1.97v37.05h.26c3.15-7.69 10.44-11.43 18.72-11.43 15.17 0 23.32 9.59 23.32 25.42v40.92h-17.74v-37.51c0-9.26-3.61-14.06-11.36-14.06s-13.2 5.25-13.2 15.17v36.39h-17.74v-89.99Zm71.59 72.39c0-10.77 6.77-16.49 21.81-19.12l20.1-3.55v-3.81c0-4.99-2.96-8.47-10.84-8.47-7.23 0-11.5 2.56-12.74 9.2l-17.01-2.63c3.09-13.07 13.4-20.36 30.41-20.36 18.13 0 27.85 7.95 27.79 23.06l-.13 27.59c0 2.96 1.97 3.81 4.4 3.81 1.05 0 2.3-.07 3.55-.33v12.35c-3.48.85-6.5 1.18-9.72 1.18-10.71 0-13.73-5.85-13.73-11.76v-.33h-.26c-3.09 7.69-10.9 12.09-21.35 12.09-14.19 0-22.27-7.42-22.27-18.92Zm41.91-5.98v-5.85l-16.16 3.48c-4.86 1.05-7.09 3.22-7.09 6.96 0 5.06 3.94 7.42 9.85 7.42 8.21 0 13.4-4.53 13.4-12.02Zm34.81.13v-41.58h17.74v37.51c0 9.26 3.42 14.06 11.17 14.06s13.01-5.25 13.01-15.17v-36.39h17.74v65.03h-15.77l-1.31-10.77h-.26c-3.81 8.34-10.9 12.09-19.18 12.09-15.17 0-23.12-9.59-23.12-24.77Zm70.34 15.76 7.69-13.14c5.19 4.27 13.4 8.01 21.94 8.01 7.29 0 10.64-2.5 10.64-6.5 0-2.69-1.45-4.4-7.75-5.52l-8.28-1.44c-13.53-2.37-20.89-8.34-20.89-19.12 0-12.22 10.05-20.96 26.14-20.96 10.05 0 18.46 2.89 26.67 8.34l-7.16 12.42c-5.65-3.94-11.69-6.96-19.51-6.96-5.85 0-8.87 2.17-8.87 5.58 0 3.09 2.17 4.99 7.55 5.85l8.61 1.31c14.58 2.23 21.48 8.15 21.48 19.18 0 12.88-9.39 21.94-27.98 21.94-11.36 0-22.73-3.55-30.28-9Zm66.8-24.89c0-18.98 14.19-33.76 33.44-33.76s33.17 14.78 33.17 33.83c0 2.1-.07 3.15-.2 4.86h-48.61c1.51 9.46 7.88 14.52 18.13 14.52 6.77 0 12.68-2.89 16.95-8.8l12.09 10.05c-7.23 8.41-17.41 13.2-29.69 13.2-22.33 0-35.27-14.19-35.27-33.9Zm48.41-6.9c-1.45-7.09-7.03-12.09-14.98-12.09s-13.07 4.47-15.11 12.09z"/></svg>